<svg id="visual" viewBox="0 0 900 600" width="900" height="600" xmlns="http://www.w3.org/2000/svg" xmlns:xlink="http://www.w3.org/1999/xlink" version="1.1"><path d="M0 25L53 121L106 61L159 49L212 37L265 85L318 91L371 55L424 91L476 97L529 103L582 31L635 103L688 31L741 67L794 25L847 55L900 91L900 0L847 0L794 0L741 0L688 0L635 0L582 0L529 0L476 0L424 0L371 0L318 0L265 0L212 0L159 0L106 0L53 0L0 0Z" fill="#038250"></path><path d="M0 211L53 193L106 169L159 163L212 223L265 157L318 205L371 283L424 307L476 319L529 319L582 277L635 211L688 205L741 217L794 241L847 145L900 241L900 89L847 53L794 23L741 65L688 29L635 101L582 29L529 101L476 95L424 89L371 53L318 89L265 83L212 35L159 47L106 59L53 119L0 23Z" fill="#008e62"></path><path d="M0 313L53 433L106 349L159 349L212 415L265 301L318 319L371 355L424 391L476 409L529 427L582 379L635 361L688 283L741 289L794 367L847 343L900 283L900 239L847 143L794 239L741 215L688 203L635 209L582 275L529 317L476 317L424 305L371 281L318 203L265 155L212 221L159 161L106 167L53 191L0 209Z" fill="#009b74"></path><path d="M0 337L53 451L106 385L159 403L212 433L265 319L318 379L371 409L424 433L476 469L529 457L582 421L635 379L688 349L741 355L794 439L847 385L900 349L900 281L847 341L794 365L741 287L688 281L635 359L582 377L529 425L476 407L424 389L371 353L318 317L265 299L212 413L159 347L106 347L53 431L0 311Z" fill="#00a787"></path><path d="M0 409L53 511L106 427L159 481L212 469L265 409L318 415L371 469L424 487L476 517L529 511L582 481L635 469L688 421L741 415L794 469L847 451L900 433L900 347L847 383L794 437L741 353L688 347L635 377L582 419L529 455L476 467L424 431L371 407L318 377L265 317L212 431L159 401L106 383L53 449L0 335Z" fill="#00b39a"></path><path d="M0 481L53 541L106 451L159 553L212 553L265 493L318 493L371 511L424 523L476 571L529 571L582 511L635 517L688 475L741 463L794 547L847 523L900 487L900 431L847 449L794 467L741 413L688 419L635 467L582 479L529 509L476 515L424 485L371 467L318 413L265 407L212 467L159 479L106 425L53 509L0 407Z" fill="#00c0ad"></path><path d="M0 601L53 601L106 601L159 601L212 601L265 601L318 601L371 601L424 601L476 601L529 601L582 601L635 601L688 601L741 601L794 601L847 601L900 601L900 485L847 521L794 545L741 461L688 473L635 515L582 509L529 569L476 569L424 521L371 509L318 491L265 491L212 551L159 551L106 449L53 539L0 479Z" fill="#00ccc0"></path></svg>